<?xml version="1.0" standalone="no"?><!DOCTYPE svg PUBLIC "-//W3C//DTD SVG 1.1//EN" "http://www.w3.org/Graphics/SVG/1.1/DTD/svg11.dtd"><svg t="1594644951499" class="icon" viewBox="0 0 1025 1024" version="1.1" xmlns="http://www.w3.org/2000/svg" p-id="2508" xmlns:xlink="http://www.w3.org/1999/xlink" width="16.015625" height="16"><defs><style type="text/css"></style></defs><path d="M223.568 450.238c0-52.781 42.931-95.721 95.701-95.721 52.773 0 95.708 42.94 95.708 95.721l0 32 191.714 0 0-32c0-52.781 42.935-95.721 95.708-95.721 52.771 0 95.702 42.94 95.702 95.721l0 32 191.708 0 0-223.53c0-88.084-71.645-159.746-159.708-159.746l-43.403 0c-5.422-6.91-13.204-13.875-24.241-20.397-15.522-9.174-36.806-17.178-63.257-23.791C648.491 42.096 581.594 35.114 510.832 35.114c-70.76 0-137.655 6.982-188.364 19.659-26.451 6.613-47.733 14.617-63.256 23.791-11.037 6.522-18.82 13.488-24.241 20.397l-43.403 0c-88.063 0-159.708 71.662-159.708 159.746l0 223.53 191.708 0L223.568 450.238zM162.788 418.238l-66.928 0 0-159.53c0-52.794 42.935-95.746 95.708-95.746l95.854 0 0-26.472c6.354-4.889 25.644-14.825 67.303-23.431 43.531-8.993 98.97-13.945 156.107-13.945 57.139 0 112.58 4.952 156.111 13.945 41.66 8.605 60.95 18.542 67.304 23.431l0 26.472 95.854 0c52.773 0 95.708 42.952 95.708 95.746l0 159.53-66.928 0c-14.858-72.79-79.376-127.721-156.482-127.721-77.109 0-141.63 54.931-156.488 127.721l-70.154 0c-14.858-72.79-79.379-127.721-156.488-127.721C242.163 290.517 177.646 345.448 162.788 418.238zM960.139 513.098 66.191 513.098c-35.267 0-63.86 28.602-63.86 63.944l0 287.24c0 19.43 0 32.551 0 32.551l0 31.201c0 17.656 14.297 31.965 31.927 31.965 17.636 0 31.933-14.31 31.933-31.965l0-31.201 893.949 0 0 31.201c0 17.656 14.297 31.965 31.933 31.965 17.63 0 31.927-14.31 31.927-31.965l0-31.201c0 0 0-13.121 0-32.551l0-287.24C1024 541.7 995.406 513.098 960.139 513.098zM193.898 832.342 66.191 832.342 66.191 576.939l127.708 0L193.899 832.342zM385.46 832.342 257.752 832.342 257.752 576.939l127.708 0L385.46 832.342zM577.022 832.342 449.308 832.342 449.308 576.939l127.714 0L577.022 832.342zM768.578 832.342 640.87 832.342 640.87 576.939l127.708 0L768.578 832.342zM960.139 832.342 832.432 832.342 832.432 576.939l127.708 0L960.14 832.342z" p-id="2509"></path></svg>