<?xml version="1.0" standalone="no"?><!DOCTYPE svg PUBLIC "-//W3C//DTD SVG 1.1//EN" "http://www.w3.org/Graphics/SVG/1.1/DTD/svg11.dtd"><svg t="1594644903942" class="icon" viewBox="0 0 1024 1024" version="1.1" xmlns="http://www.w3.org/2000/svg" p-id="2372" xmlns:xlink="http://www.w3.org/1999/xlink" width="16" height="16"><defs><style type="text/css"></style></defs><path d="M608.061 319.963c-17.604 0-31.868 14.251-31.868 31.849 0 17.598 14.264 31.875 31.868 31.875l63.736 0c17.598 0 31.868-14.277 31.868-31.875 0-17.597-14.271-31.849-31.868-31.849L608.061 319.963zM1023.187 219.851c-0.76-7.386-4.462-13.925-10.916-17.827l-323.729-195.556c-3.117-1.883-6.589-2.973-10.204-3.342-0.036-0.042-0.076-0.084-0.112-0.126l-38.321 0c-0.779 34.854-57.53 62.999-127.454 62.999-69.912 0-126.669-28.145-127.448-62.999l-38.321 0c-0.036 0.042-0.076 0.084-0.112 0.126-3.615 0.369-7.086 1.459-10.204 3.342l-323.729 195.556c-6.604 3.993-10.324 10.747-10.961 18.344-0.441 1.843-0.676 3.751-0.676 5.708l0 63.935c0 6.169 2.311 11.866 6.214 16.481 2.687 4.422 6.49 8.253 11.286 11.027l173.616 112.028 0 561.617c0 17.623 14.412 31.906 32.191 31.906 0.224 0 0.445-0.012 0.668-0.017 0.221 0.005 0.439 0.017 0.661 0.017l573.633 0c0.222 0 0.441-0.012 0.661-0.017 0.223 0.005 0.444 0.017 0.668 0.017 17.78 0 32.191-14.283 32.191-31.906l0-559.232 173.617-114.413c4.649-2.689 8.36-6.375 11.031-10.627 4.113-4.683 6.56-10.532 6.56-16.881l0-63.935C1024 223.935 1023.713 221.853 1023.187 219.851zM959.995 271.905l-176.66 116.405c-12.658 7.322-18.398 21.99-14.939 35.497l0 535.507-511.884 0 0-538.129c3.46-13.507-2.281-28.176-14.939-35.498l-176.568-113.923 0-26.356 282.812-170.842c27.974 31.563 91.159 53.586 164.634 53.586 73.479 0 136.666-22.022 164.64-53.586l282.905 170.895L959.996 271.905z" p-id="2373"></path></svg>