<?xml version="1.0" standalone="no"?><!DOCTYPE svg PUBLIC "-//W3C//DTD SVG 1.1//EN" "http://www.w3.org/Graphics/SVG/1.1/DTD/svg11.dtd"><svg t="1594645196929" class="icon" viewBox="0 0 1024 1024" version="1.1" xmlns="http://www.w3.org/2000/svg" p-id="5484" xmlns:xlink="http://www.w3.org/1999/xlink" width="16" height="16"><defs><style type="text/css"></style></defs><path d="M937.99936 484.096c-1.30048-8.192-4.70016-14.49472-10.496-18.19648-4.5056-2.80064-11.50464-2.60096-19.00544-2.60096H484.5056c-0.79872-7.3984-1.50016-14.7968-2.304-22.20032-0.39424-4.79744-0.79872-9.6-1.09568-14.39744-0.39936-7.30112-0.90112-14.69952-1.30048-22.00064-0.30208-9.00096-0.50176-17.89952-0.79872-26.90048v-18.29888c0-2.2016 0-4.3008 0.1024-6.4 0.19456-8.09984 0.49664-16.19968 0.69632-24.20224H907.60192c4.1984 0 8.6016 0.2048 11.79648-0.79872 8.4992-2.60096 13.19936-8.704 14.7968-18.29888 1.3056-8.00256-4.99712-15.70304-9.19552-18.49856-6.99904-4.60288-18.49856-3.4048-29.9008-3.4048H483.3024c2.2016-14.49984 4.70016-29.39904 8.6016-42.496 1.39776-4.60288 2.79552-9.10336 4.3008-13.70112 0.896-2.49856 1.8944-5.09952 2.79552-7.59808 109.9008 0 219.8016 0 329.69728-0.1024h79.50336c3.49696 0 7.5008 0.2048 10.30144-0.50176 8.2944-2.29888 13.696-8.09984 15.39584-16.9984 1.40288-7.5008-2.80064-14.8992-6.5024-17.89952-2.59584-2.0992-5.1968-3.90144-8.99584-4.89984-2.49856-0.70144-5.60128-0.50176-8.704-0.50176H563.0976c0.80384-1.50016 1.50016-3.0976 2.304-4.59776 2.80064-5.60128 6.5024-11.29984 7.59808-18.40128 0.79872-4.4032-0.79872-8.80128-2.304-11.40224-3.49696-6.0928-10.5984-12.6976-21.49376-10.99776-2.50368 0.2048-4.89984 0.30208-7.40352 0.50176-4.59776 0.79872-9.09824 1.30048-13.29664 2.49856a94.16704 94.16704 0 0 0-28.60032 13.99808c-2.60096 2.0992-5.09952 4.3008-7.6032 6.4-1.9968 1.60256-3.89632 3.70176-5.39648 5.60128-1.40288 1.50016-2.80064 3.10272-4.1984 4.70016a126.97088 126.97088 0 0 0-8.40192 11.89888c-11.49952 18.2016-18.90304 39.6032-25.00096 63.50336-2.2016 8.89856-3.39968 18.19648-5.20192 27.4944-1.79712 8.8064-1.8944 18.00192-3.39968 27.20256-0.19968 2.90304-0.49664 5.80096-0.69632 8.704-1.1008 6.59968-0.3072 13.7984-1.40288 20.59776l-0.30208 7.3984c-0.1024 3.50208-0.19968 7.10144-0.19968 10.5984-0.1024 3.60448-0.19968 7.10144-0.19968 10.7008v12.40064c0.2048 6.6048 0.2048 13.19936 0.30208 19.79904 0.1024 4.10112 0.30208 8.20224 0.50176 12.30336 0.19968 3.0976 0.29696 6.1952 0.49664 9.40032 0.1024 2.2016 0.30208 4.4032 0.39936 6.69696 0.50176 6.99904 1.1008 14.0032 1.60256 21.09952 0.70144 7.30112 1.39776 14.69952 1.9968 22.10304v0.1024H355.4048c-0.50176-5.20192-1.1008-10.40384-1.59744-15.60576a1814.19008 1814.19008 0 0 0-2.00192-23.1936c-0.2048-2.80576-0.30208-5.70368-0.50176-8.40192l-0.59904-11.50464c-0.19968-5.39648-0.39936-10.89536-0.50176-16.29696l-0.29696-16.59904v-19.3024c0-2.29888 0.1024-4.59776 0.19968-6.89664 0.19968-5.20192 0.50176-10.40384 0.70144-15.60064 0.19968-3.39968 0.29696-6.79936 0.49664-10.30144 0.2048-2.304 0.39936-4.70016 0.50176-7.10144 0.79872-6.89664 1.39776-13.9008 2.2016-20.79744 1.79712-9.79968 2.49856-19.70176 4.70016-28.99968 1.50016-6.10304 2.59584-12.20096 4.39808-18.00192 5.09952-17.2032 11.29984-32.79872 20.89984-45.50144 6.5024-8.6016 14.7968-15.49824 26.39872-18.89792 3.00032-0.90112 6.20032-0.9984 9.50272-1.50016 2.29888-0.39936 4.79744 0.1024 6.99904-0.30208 5.09952-1.1008 9.40032-3.29728 12.09856-6.79936 1.69984-2.0992 3.3024-4.50048 4.1984-7.30112 3.90144-12.5952-4.59776-22.99904-13.59872-25.79968-6.99904-2.2016-19.3024-0.39936-25.6 1.2032-21.2992 5.1968-37.39648 15.49824-49.1008 30.30016-3.29728 4.1984-6.69696 8.2944-9.6 12.9024-9.09824 14.39744-15.49824 30.7968-21.1968 48.896-3.50208 11.20256-5.4016 23.19872-8.00256 35.39968-2.2016 9.99936-2.49856 20.60288-4.1984 31.09888-0.39936 4.3008-0.70144 8.4992-1.1008 12.8-1.1008 6.70208-0.29696 14.40256-1.39776 21.1968-0.2048 2.60608-0.2048 5.30432-0.30208 7.90528-0.1024 2.80064-0.1024 5.69856-0.19968 8.4992-0.1024 3.59936-0.19968 7.10144-0.19968 10.7008v12.8l0.30208 19.79904 0.59904 15.69792c0.19968 3.4048 0.29696 6.7072 0.49664 10.10176 0.2048 2.49856 0.30208 4.89984 0.50176 7.3984 0.59904 7.70048 1.30048 15.40096 1.89952 23.10144l1.50016 15.0016v0.19968H227.50208c-0.70144-6.4-1.40288-12.9024-2.00192-19.4048-0.50176-6.79424-1.1008-13.49632-1.60256-20.29568-0.49664-7.99744-0.896-16-1.29536-23.90016-0.2048-2.80064-0.2048-5.60128-0.30208-8.3968l-0.30208-18.10432v-21.09952c0.2048-4.70016 0.30208-9.29792 0.50176-13.99808 0.2048-3.79904 0.30208-7.6032 0.50176-11.40224 0.19968-2.80064 0.29696-5.69856 0.49664-8.4992l2.0992-23.10144c2.00192-11.29984 2.70336-22.49728 5.30432-33.09568 1.69984-7.10144 3.0976-14.30016 5.2992-21.10464a216.40192 216.40192 0 0 1 9.09824-24.19712c6.20032-14.0032 17.40288-28.8 31.60064-34.80064 3.90144-1.69984 8.20224-2.49856 13.19936-3.3024 3.59936-0.59904 7.90016 0 11.00288-0.896 7.79776-2.4064 12.99968-7.90016 14.7968-16.19968 1.1008-5.09952-0.49664-10.30144-2.29888-13.40416-2.69824-4.70016-6.5024-8.09984-12.20096-9.89696-6.4-1.9968-19.49696-0.2048-25.29792 1.19808-20.50048 5.09952-37.00224 15.29856-48.30208 29.39904-3.49696 4.4032-7.90016 9.00096-10.5984 14.0032h-44.9024c-7.5008 0-16.7936-0.90112-22.2976 1.30048-6.20032 2.39616-10.5984 7.296-12.60032 13.99808-1.69984 5.60128 0.1024 12.00128 2.304 15.49824a20.15744 20.15744 0 0 0 11.79648 9.30304c4.3008 1.30048 10.8032 0.79872 16.29696 0.79872h30.60224v0.1024c-0.79872 3.29728-1.69984 6.59968-2.60096 9.89696-2.89792 9.50272-4.50048 19.4048-6.79936 29.70112-1.1008 5.20192-1.59744 10.7008-2.60096 16.19968a192.896 192.896 0 0 0-1.1008 8.00256c-4.50048 0-9.09824 0.1024-13.59872 0.1024h-10.90048c-2.2016 0.09728-4.3008 0.19456-6.5024 0.19456-7.49568 1.40288-12.89728 5.69856-15.69792 11.89888-0.79872 1.89952-1.30048 4.00384-1.69984 6.2976-0.79872 4.90496 1.00352 9.40544 2.70336 12.30336 2.69824 4.60288 6.59968 7.90016 12.09856 9.6 3.29728 0.9984 7.70048 0.79872 11.89888 0.79872h18.2016l-0.30208 10.40384c-0.1024 3.00032-0.19968 5.89824-0.19968 8.89856l-0.29696 17.39776 0.29696 21.2992c0.1024 2.60096 0.2048 5.30432 0.2048 7.90016l0.59392 14.60224 1.2032 21.2992c0.90112 10.8032 1.9968 21.69856 2.89792 32.50176H126.8992c-9.29792 0-21.80096-1.1008-28.40064 1.79712-8.79616 3.90144-16.29696 16.9984-9.4976 28.60032 2.69824 4.60288 6.69696 8.09984 12.29824 9.90208 1.50016 0.19968 3.00032 0.50176 4.5056 0.79872h788.992c-0.79872 3.99872-1.59744 7.90016-2.29888 11.89888-1.79712 8.09984-3.2 16.1024-5.09952 23.90016-7.3984 28.99968-16.09728 55.6032-26.99776 80.70144-25.8048 59.20256-62.80192 109.7984-111.20128 146.40128-8.29952 6.1952-16.79872 12.29824-25.79968 17.89952-4.70016 3.00032-9.6 5.49888-14.49984 8.3968-5.20192 3.00544-10.7008 6.00064-16.30208 8.4992-8.3968 3.70176-16.896 7.50592-25.79968 11.10528-8.89856 3.49696-17.9968 6.1952-27.4944 9.09824-8.704 2.69824-17.80224 4.59776-27.10528 6.79936-8.79616 2.2016-17.9968 3.10272-27.39712 4.89984-7.90016 1.60256-16.50176 1.60256-24.90368 3.00032-2.49856 0.2048-5.09952 0.50176-7.59808 0.70144-4.3008 0.19968-8.4992 0.50176-12.8 0.70144-4.50048 0.19968-9.09824 0.29696-13.70112 0.49664h-21.79584c-3.90144-0.19968-8.00256-0.29696-12.00128-0.49664-5.4016-0.30208-11.00288-0.60416-16.50176-0.90112-3.39968-0.30208-6.90176-0.59904-10.39872-0.90112-9.00096-1.50016-18.00192-1.69984-26.5984-3.39968-10.10176-1.9968-20.10112-3.39968-29.70112-5.80096-23.90016-6.09792-46.10048-12.99968-66.90304-22.00064-25.99936-11.39712-49.30048-25.29792-70.99904-40.89856-6.5024-4.70016-12.49792-9.79968-18.80064-14.7968-2.2016-1.90464-4.4032-3.90144-6.59968-5.80096-4.3008-3.3024-7.79776-7.5008-12.09856-10.9056-0.9984-0.9984-1.9968-1.9968-3.00032-3.0976a47.14496 47.14496 0 0 1-6.70208-6.69696c-2.59584-3.2-5.89824-5.90336-8.4992-9.10336-3.29728-4.096-7.19872-7.70048-10.39872-11.89888-8.89856-11.49952-18.2016-22.79936-25.99936-35.3024a801.7152 801.7152 0 0 1-13.50144-21.89824c-1.79712-3.59936-3.69664-7.10144-5.60128-10.5984-1.8944-3.70176-3.79904-7.3984-5.69856-11.10016-2.304-5.20192-4.59776-10.496-6.90176-15.70304-1.49504-3.69664-2.59584-7.90016-4.79744-10.89536-3.99872-5.80096-13.7984-11.29984-23.79776-7.5008-5.90336 2.29888-10.20416 6.4-12.50304 12.29824-2.304 6.00064-0.70144 12.29824 1.30048 17.30048a346.01984 346.01984 0 0 0 12.9024 28.89728c8.89856 17.50016 18.49856 34.2016 29.49632 49.70496 6.4 9.19552 13.19936 18.0992 20.10112 26.89536 5.80096 7.5008 12.60032 14.0032 18.60096 21.4016 2.60096 2.69824 5.20192 5.2992 7.70048 8.00256 1.8944 2.29888 4.4032 4.79744 6.69696 6.69696 3.50208 2.80064 6.4 6.5024 9.79968 9.40032 4.00384 3.3024 7.6032 7.10144 11.60192 10.30144 9.40032 7.3984 18.60096 14.8992 28.40064 21.89824 27.5968 19.4048 57.79968 35.39968 91.8016 48.79872 14.8992 5.80096 30.69952 9.8048 46.7968 14.60224l10.19904 2.40128c13.10208 3.29728 26.90048 4.99712 40.8064 7.5008 4.99712 0.59904 10.09664 1.09568 15.09376 1.69984 5.80096 0.9984 12.00128 0.69632 18.10432 1.69984 3.79904 0.19968 7.59808 0.49664 11.29984 0.69632 3.0976 0.1024 6.09792 0.30208 9.19552 0.40448 1.80224 0 3.60448 0.1024 5.4016 0.1024 4.5056 0.09728 9.10336 0.09728 13.59872 0.19456 4.1984 0 8.30464-0.1024 12.50304-0.19968 2.60096-0.1024 5.2992-0.1024 7.79776-0.19968 3.3024-0.2048 6.70208-0.30208 9.99936-0.50176l13.50144-0.896 15.80032-1.50016 11.6992-1.50016c10.7008-1.89952 21.4016-2.90304 31.50336-5.4016l18.29888-4.1984c15.20128-4.5056 30.10048-8.29952 44.09856-13.9008 23.79776-9.40032 45.7984-19.99872 66.0992-32.79872 12.6976-8.00256 24.40192-16.80384 35.99872-25.9072 6.20032-4.79744 11.70432-10.496 17.69984-15.39584 2.00192-1.9968 4.00384-3.90144 5.90336-5.80096a60.47232 60.47232 0 0 0 7.99744-7.99744l3.39968-3.39968c3.39968-4.3008 7.5008-7.90016 10.9056-12.30336 3.59424-4.50048 7.69536-8.69888 11.19744-13.29664 8.89856-11.8016 17.79712-23.80288 25.79968-36.60288a468.36224 468.36224 0 0 0 32.50176-61.696c4.096-9.40032 7.79776-19.0976 11.5968-29.0048 4.80256-12.39552 8.3968-25.4976 12.40064-38.59968 4.70016-15.59552 7.59808-32 11.20256-48.69632 0.896-6.10304 1.8944-12.30336 2.89792-18.40128 0.39936-3.90144 0.90112-7.80288 1.30048-11.60192 0.79872-2.29888 1.30048-4.59776 0.9984-6.5024z" p-id="5485"></path></svg>