<?xml version="1.0" standalone="no"?><!DOCTYPE svg PUBLIC "-//W3C//DTD SVG 1.1//EN" "http://www.w3.org/Graphics/SVG/1.1/DTD/svg11.dtd"><svg t="1594645226187" class="icon" viewBox="0 0 1024 1024" version="1.1" xmlns="http://www.w3.org/2000/svg" p-id="6556" xmlns:xlink="http://www.w3.org/1999/xlink" width="16" height="16"><defs><style type="text/css"></style></defs><path d="M697 617.6m-57.7 0a57.7 57.7 0 1 0 115.4 0 57.7 57.7 0 1 0-115.4 0Z" fill="#4E65A8" p-id="6557"></path><path d="M349 617.6m-57.7 0a57.7 57.7 0 1 0 115.4 0 57.7 57.7 0 1 0-115.4 0Z" fill="#4E65A8" p-id="6558"></path><path d="M816.1 63.7H209c-53.7 0-97.3 43.7-97.3 97.4v379.3c0 9.9 8 17.9 17.9 17.9 9.9 0 17.9-8 17.9-17.9V473h730v274c0 33.9-27.6 61.5-61.5 61.5h-45.3c-5.4 0-10.5 2.4-13.9 6.6-3.4 4.2-4.8 9.6-3.7 14.9 1 5.1 1.6 10.4 1.6 15.5 0 43.2-35.2 78.4-78.4 78.4s-78.4-35.2-78.4-78.4c0-5.2 0.5-10.4 1.5-15.6 1-5.3-0.3-10.7-3.7-14.9s-8.5-6.6-13.9-6.6H439c-5.4 0-10.5 2.4-13.9 6.6-3.4 4.1-4.8 9.6-3.7 14.9 1 5.1 1.5 10.4 1.5 15.6 0 43.2-35.2 78.4-78.4 78.4s-78.4-35.2-78.4-78.4c0-5.1 0.5-10.4 1.6-15.6 1-5.3-0.3-10.7-3.7-14.9-3.4-4.2-8.5-6.6-13.9-6.6H209c-33.9 0-61.5-27.6-61.5-61.5v-63.3c-0.1-9.8-8-17.8-17.9-17.8-9.8 0-17.8 7.9-17.9 17.8V747c0 53.7 43.7 97.3 97.3 97.3h21.4v1.2c0 63 51.2 114.2 114.2 114.2s114.2-51.2 114.2-114.2v-1.2h103.4v1.2c0 63 51.2 114.2 114.2 114.2s114.2-51.2 114.2-114.2v-1.2H816c53.7 0 97.3-43.7 97.3-97.3V348.2h-0.5c-1.3-8.6-8.4-15.4-17.4-15.4s-16.1 6.7-17.4 15.4h-0.5v90.3H649.2c-0.4-1.4-0.7-2.9-1.5-4.3L548 266.1c-5-8.5-16.1-11.3-24.6-6.3-8.5 5.1-11.3 16-6.3 24.6l91.4 154.1H448.1c-0.5-1.6-0.9-3.3-1.8-4.7L339.6 265.7c-5.3-8.3-16.4-10.8-24.7-5.5-8.4 5.3-10.8 16.4-5.5 24.7l97.5 153.6H147.5V161.1c0-33.9 27.6-61.5 61.5-61.5h607c33.9 0 61.5 27.6 61.5 61.5v43.8h0.5c-0.1 0.8-0.5 1.5-0.5 2.4 0 9.9 8 17.9 17.9 17.9s17.9-8 17.9-17.9c0-0.8-0.4-1.6-0.5-2.4h0.5v-43.8h0.1c0-53.7-43.7-97.4-97.3-97.4z" fill="#4E65A8" p-id="6559"></path></svg>